<svg xmlns="http://www.w3.org/2000/svg" version="1.1" xmlns:xlink="http://www.w3.org/1999/xlink" xmlns:svgjs="http://svgjs.dev/svgjs" width="1000" height="1000" viewBox="0 0 1000 1000"><rect width="1000" height="1000" fill="#ffffff"></rect><g transform="matrix(0.7,0,0,0.7,150,150)"><svg viewBox="0 0 280 280" data-background-color="#ffffff" preserveAspectRatio="xMidYMid meet" height="1000" width="1000" xmlns="http://www.w3.org/2000/svg" xmlns:xlink="http://www.w3.org/1999/xlink"><g id="tight-bounds" transform="matrix(1,0,0,1,0,0)"><svg viewBox="0 0 280 280" height="280" width="280"><g><svg viewBox="0 0 280 280" height="280" width="280"><g><svg viewBox="0 0 280 280" height="280" width="280"><g id="textblocktransform"><svg viewBox="0 0 280 280" height="280" width="280" id="textblock"><g><svg viewBox="0 0 280 280" height="280" width="280"><g transform="matrix(1,0,0,1,81.85661440649014,74.00336708925556)"><svg viewBox="0 0 116.28677118701974 131.99326582148888" height="131.99326582148888" width="116.28677118701974"><g><svg xmlns="http://www.w3.org/2000/svg" xmlns:xlink="http://www.w3.org/1999/xlink" version="1.1" x="0" y="0" viewBox="-337.1669921875 256.13226318359375 87.9840087890625 99.86773681640625" enable-background="new -346 256 100 100" xml:space="preserve" height="131.99326582148888" width="116.28677118701974" class="icon-o-0" data-fill-palette-color="accent" id="o-0"><path d="M-263.363 311.56l-6.967-25.521-19.562-12.246 19.148-3.609 0.413-5.213c0 0-14.309-6.192-25.391-8.708-2.433-0.553-4.653 8.025-6.731 7.853-2.199-0.184-3.021-8.415-4.454-7.966-8.955 2.807-14.775 15.64-14.775 15.64l13.432 5.213-19.7 16.04v42.107L-337.167 356h87.984L-263.363 311.56zM-296.575 337.709c-11.64 0-21.076-9.436-21.076-21.076 0-11.639 9.436-21.075 21.076-21.075s21.076 9.436 21.076 21.075C-275.499 328.273-284.936 337.709-296.575 337.709z" fill="#3d9970" data-fill-palette-color="accent"></path><path d="M-297.026 313.592c-1.286-0.602-2.143-1.31-2.143-2.443 0-1.664 0.935-2.584 2.143-3.08V313.592L-297.026 313.592zM-295.195 319.575c1.323 0.602 2.258 1.416 2.258 2.727 0 1.31-0.973 2.194-2.258 2.69V319.575L-295.195 319.575zM-297.026 301.271v2.62c-4.167 0.46-7.828 2.621-7.828 7.471 0 4.921 4.323 6.195 7.828 7.435v6.621c-0.273 0.07-0.506 0.07-0.74 0.07-2.142 0-4.284-0.602-6.153-1.521l-0.507 4.461c2.688 0.601 4.011 0.956 6.971 0.956 0.117 0 0.273 0 0.429-0.036v2.797h1.831v-2.902c4.478-0.496 7.944-2.69 7.944-7.33 0-5.098-4.519-6.372-7.944-7.611v-6.55c0.117-0.035 0.194-0.035 0.311-0.035 1.908 0 3.816 0.39 5.53 1.062l0.507-4.071c-1.948-0.603-4.051-0.886-6.348-0.886v-2.548H-297.026L-297.026 301.271z" fill="#3d9970" data-fill-palette-color="accent"></path></svg></g></svg></g><g><path d="M34.244 174.372L35.843 178.499C35.15 179.364 34.278 180.363 33.229 181.495 32.188 182.632 31.082 183.805 29.911 185.013 28.74 186.222 27.546 187.436 26.329 188.655 25.109 189.868 23.982 190.988 22.949 192.014V192.014C24.401 192.069 25.986 192.131 27.702 192.2 29.415 192.262 31.113 192.349 32.796 192.459 34.475 192.563 36.081 192.682 37.614 192.814 39.155 192.951 40.473 193.105 41.568 193.278V193.278L43.123 197.291C41.417 198.196 39.597 199.131 37.663 200.096 35.723 201.064 33.733 202.033 31.693 203.003 29.644 203.969 27.582 204.929 25.507 205.884 23.426 206.841 21.394 207.758 19.412 208.634V208.634L17.715 204.254C20.523 203.059 23.407 201.816 26.365 200.526 29.328 199.227 32.169 197.904 34.889 196.555V196.555C34.25 196.501 33.484 196.445 32.592 196.388 31.704 196.322 30.741 196.26 29.705 196.202 28.671 196.149 27.602 196.1 26.498 196.053 25.4 196.003 24.336 195.956 23.304 195.909 22.273 195.863 21.311 195.822 20.42 195.786 19.525 195.759 18.763 195.731 18.133 195.702V195.702L16.847 192.382C17.295 191.943 17.846 191.406 18.499 190.772 19.148 190.146 19.837 189.466 20.566 188.73 21.298 188.001 22.053 187.252 22.834 186.482 23.618 185.704 24.367 184.947 25.081 184.21 25.795 183.473 26.465 182.782 27.093 182.136 27.717 181.485 28.239 180.93 28.659 180.473V180.473C25.738 181.302 22.746 182.238 19.684 183.281 16.627 184.314 13.657 185.335 10.776 186.343V186.343L9.083 181.973C11.139 181.285 13.273 180.584 15.484 179.871 17.698 179.165 19.901 178.476 22.094 177.807 24.277 177.133 26.406 176.503 28.479 175.916 30.546 175.331 32.468 174.816 34.244 174.372ZM38.777 213.813V213.813C37.635 214.681 36.704 215.611 35.985 216.604 35.266 217.597 34.781 218.605 34.532 219.628 34.281 220.661 34.267 221.695 34.489 222.73 34.706 223.769 35.18 224.769 35.91 225.73V225.73C36.628 226.675 37.458 227.391 38.402 227.878 39.339 228.37 40.339 228.633 41.401 228.668 42.454 228.702 43.555 228.505 44.704 228.078 45.854 227.651 46.999 227.003 48.142 226.135V226.135C49.284 225.267 50.215 224.337 50.934 223.344 51.653 222.351 52.137 221.343 52.387 220.32 52.632 219.291 52.647 218.257 52.43 217.218 52.212 216.179 51.745 215.187 51.027 214.242V214.242C50.297 213.281 49.46 212.557 48.517 212.069 47.574 211.582 46.569 211.323 45.501 211.292 44.438 211.267 43.337 211.463 42.198 211.882 41.06 212.301 39.919 212.944 38.777 213.813ZM51.16 230.107V230.107C49.371 231.466 47.594 232.395 45.827 232.896 44.059 233.406 42.372 233.551 40.765 233.332 39.155 233.108 37.653 232.561 36.259 231.691 34.871 230.818 33.65 229.687 32.595 228.299V228.299C31.545 226.917 30.778 225.432 30.296 223.845 29.824 222.259 29.697 220.663 29.916 219.056 30.135 217.45 30.721 215.855 31.674 214.272 32.625 212.698 33.995 211.232 35.783 209.873V209.873C37.571 208.514 39.346 207.591 41.106 207.104 42.875 206.618 44.577 206.491 46.21 206.724 47.844 206.956 49.357 207.507 50.75 208.376 52.138 209.25 53.352 210.37 54.39 211.736V211.736C55.429 213.103 56.183 214.572 56.653 216.143 57.121 217.724 57.241 219.321 57.011 220.936 56.781 222.55 56.193 224.142 55.247 225.712 54.31 227.283 52.948 228.748 51.16 230.107ZM66.108 259.173L62.938 256.647C63.161 254.99 63.376 253.186 63.585 251.235 63.784 249.285 63.96 247.3 64.113 245.279 64.272 243.262 64.383 241.271 64.447 239.308 64.511 237.345 64.521 235.54 64.478 233.894V233.894L52.791 248.564 49.126 245.643 65.456 225.146 68.5 227.571C68.632 229.03 68.7 230.688 68.705 232.543 68.71 234.398 68.684 236.302 68.629 238.255 68.569 240.213 68.475 242.149 68.348 244.062 68.226 245.98 68.077 247.738 67.9 249.337V249.337L78.741 235.73 82.438 238.675ZM93.008 272.479L76.948 264.945 88.079 241.219 103.32 248.368 101.603 252.028 90.677 246.903 87.931 252.757 97.654 257.319 95.967 260.915 86.244 256.354 82.981 263.31 94.725 268.819ZM114.692 262.773V262.773C116.204 261.165 117.691 259.527 119.154 257.86 120.624 256.187 121.999 254.484 123.277 252.749V252.749L128.449 253.862C126.503 256.18 124.509 258.466 122.467 260.722 120.419 262.977 118.265 265.226 116.006 267.469V267.469L113.843 277.527 109.183 276.525 111.329 266.545C110.2 263.539 109.16 260.579 108.209 257.665 107.264 254.76 106.381 251.851 105.561 248.938V248.938L111.037 250.116C111.482 252.221 112.018 254.336 112.645 256.459 113.273 258.576 113.956 260.681 114.692 262.773ZM132.548 253.755L136.971 253.659C137.549 254.605 138.191 255.765 138.898 257.138 139.612 258.503 140.337 259.943 141.074 261.456 141.811 262.969 142.545 264.505 143.277 266.065 144.002 267.625 144.67 269.066 145.282 270.387V270.387C145.83 269.041 146.428 267.573 147.077 265.982 147.72 264.393 148.38 262.826 149.057 261.282 149.728 259.739 150.387 258.269 151.033 256.873 151.687 255.471 152.281 254.285 152.817 253.314V253.314L157.12 253.22C157.39 255.132 157.649 257.162 157.896 259.309 158.145 261.463 158.377 263.664 158.593 265.913 158.803 268.168 159.004 270.434 159.194 272.71 159.384 274.992 159.554 277.215 159.701 279.378V279.378L155.006 279.48C154.839 276.432 154.653 273.298 154.449 270.077 154.238 266.849 153.962 263.727 153.622 260.71V260.71C153.353 261.293 153.039 261.993 152.682 262.813 152.317 263.625 151.931 264.509 151.522 265.463 151.121 266.418 150.709 267.406 150.289 268.427 149.869 269.442 149.461 270.427 149.066 271.381 148.671 272.335 148.305 273.225 147.967 274.051 147.637 274.883 147.35 275.59 147.108 276.172V276.172L143.549 276.249C143.288 275.678 142.971 274.977 142.598 274.147 142.231 273.324 141.826 272.444 141.384 271.508 140.947 270.572 140.501 269.606 140.043 268.61 139.579 267.608 139.122 266.645 138.672 265.723 138.223 264.8 137.802 263.935 137.409 263.125 137.009 262.316 136.666 261.636 136.379 261.085V261.085C136.163 264.114 136.023 267.246 135.959 270.479 135.889 273.707 135.837 276.846 135.802 279.898V279.898L131.117 280C131.17 277.833 131.239 275.588 131.323 273.266 131.413 270.944 131.517 268.638 131.635 266.349 131.746 264.066 131.879 261.85 132.033 259.701 132.188 257.559 132.359 255.577 132.548 253.755ZM188.188 272.033L171.1 276.798 164.061 251.554 180.277 247.032 181.363 250.926 169.738 254.168 171.475 260.397 181.821 257.511 182.888 261.338 172.542 264.223 174.606 271.624 187.102 268.139ZM216.629 257.366L213.057 259.28C211.623 258.421 210.051 257.51 208.341 256.548 206.628 255.594 204.874 254.648 203.077 253.709 201.287 252.766 199.503 251.878 197.725 251.043 195.946 250.209 194.293 249.486 192.764 248.875V248.875L201.622 265.407 197.491 267.621 185.113 244.52 188.544 242.682C189.937 243.138 191.486 243.73 193.192 244.459 194.899 245.187 196.638 245.963 198.41 246.786 200.185 247.614 201.926 248.465 203.633 249.338 205.347 250.207 206.903 251.039 208.302 251.833V251.833L200.085 236.498 204.251 234.266ZM206.683 231.981L222.142 217.904 224.918 220.953 218.962 226.376 233.83 242.705 230.284 245.935 215.415 229.606 209.459 235.03ZM236.729 219.91V219.91C237.897 220.743 239.062 221.355 240.224 221.747 241.385 222.139 242.492 222.302 243.543 222.236 244.604 222.169 245.595 221.876 246.518 221.356 247.445 220.84 248.26 220.091 248.96 219.108V219.108C249.649 218.142 250.086 217.136 250.272 216.091 250.463 215.049 250.417 214.016 250.135 212.992 249.854 211.977 249.339 210.984 248.59 210.013 247.841 209.043 246.883 208.141 245.714 207.308V207.308C244.546 206.475 243.381 205.863 242.22 205.471 241.058 205.079 239.952 204.916 238.9 204.981 237.845 205.052 236.854 205.346 235.926 205.862 234.998 206.378 234.19 207.119 233.501 208.085V208.085C232.8 209.068 232.357 210.082 232.172 211.127 231.986 212.172 232.037 213.209 232.325 214.238 232.617 215.261 233.132 216.253 233.87 217.216 234.608 218.179 235.561 219.077 236.729 219.91ZM248.61 203.247V203.247C250.439 204.551 251.855 205.972 252.858 207.51 253.87 209.047 254.51 210.615 254.778 212.214 255.042 213.819 254.965 215.415 254.549 217.004 254.127 218.589 253.41 220.091 252.398 221.51V221.51C251.39 222.924 250.2 224.097 248.827 225.028 247.453 225.951 245.967 226.546 244.367 226.814 242.768 227.082 241.072 226.996 239.277 226.556 237.492 226.115 235.685 225.242 233.856 223.938V223.938C232.028 222.634 230.619 221.214 229.631 219.678 228.642 218.133 228.016 216.546 227.752 214.917 227.489 213.288 227.566 211.68 227.982 210.091 228.404 208.506 229.113 207.015 230.11 205.618V205.618C231.106 204.22 232.285 203.064 233.646 202.148 235.016 201.231 236.506 200.643 238.116 200.383 239.726 200.123 241.421 200.211 243.2 200.649 244.978 201.077 246.782 201.943 248.61 203.247ZM242.088 184.184V184.184C243.478 180.668 245.184 178.231 247.205 176.875 249.233 175.521 251.571 175.368 254.221 176.415V176.415C257.526 177.721 259.121 180.234 259.006 183.952V183.952C259.724 183.723 260.58 183.481 261.575 183.226 262.572 182.964 263.639 182.719 264.775 182.49 265.91 182.262 267.058 182.066 268.218 181.905 269.38 181.737 270.502 181.626 271.583 181.57V181.57L269.624 186.527C268.607 186.637 267.566 186.78 266.501 186.958 265.443 187.138 264.404 187.329 263.387 187.533 262.373 187.745 261.405 187.968 260.484 188.202 259.565 188.429 258.736 188.657 257.997 188.884V188.884C257.892 189.224 257.793 189.51 257.702 189.74 257.608 189.977 257.519 190.202 257.436 190.414V190.414L256.589 192.556 265.801 196.197 264.049 200.63 240.032 191.136C240.221 189.964 240.517 188.75 240.919 187.496 241.319 186.248 241.708 185.144 242.088 184.184ZM246.048 185.382V185.382C245.678 186.317 245.37 187.198 245.123 188.023V188.023L252.998 191.136 253.763 189.2C254.189 188.121 254.505 187.15 254.709 186.286 254.922 185.419 254.985 184.651 254.896 183.981 254.81 183.306 254.564 182.725 254.157 182.24 253.75 181.755 253.148 181.355 252.35 181.039V181.039C251.602 180.743 250.914 180.633 250.285 180.709 249.663 180.788 249.094 181.032 248.579 181.441 248.067 181.844 247.601 182.384 247.182 183.062 246.768 183.742 246.391 184.515 246.048 185.382Z" fill="#9fa6b2" data-fill-palette-color="secondary"></path><path d="M3.812 100.222L5.41 96.096C6.505 95.923 7.822 95.772 9.361 95.642 10.896 95.503 12.503 95.381 14.183 95.277 15.863 95.173 17.563 95.08 19.284 94.999 21.002 94.924 22.589 94.856 24.044 94.794V94.794C23.008 93.774 21.879 92.661 20.657 91.454 19.433 90.254 18.236 89.046 17.067 87.831 15.896 86.623 14.789 85.453 13.746 84.323 12.699 83.184 11.829 82.182 11.136 81.317V81.317L12.691 77.303C14.561 77.783 16.536 78.318 18.615 78.908 20.701 79.5 22.824 80.125 24.985 80.783 27.15 81.449 29.321 82.128 31.498 82.82 33.68 83.515 35.799 84.206 37.855 84.895V84.895L36.158 89.274C33.278 88.266 30.309 87.242 27.254 86.202 24.19 85.166 21.198 84.23 18.279 83.394V83.394C18.715 83.865 19.244 84.422 19.865 85.065 20.477 85.712 21.146 86.406 21.873 87.148 22.601 87.883 23.358 88.64 24.142 89.418 24.92 90.194 25.675 90.946 26.406 91.676 27.137 92.405 27.82 93.083 28.455 93.709 29.098 94.332 29.642 94.867 30.088 95.313V95.313L28.802 98.632C28.174 98.655 27.406 98.681 26.496 98.71 25.595 98.735 24.627 98.773 23.593 98.826 22.561 98.872 21.498 98.916 20.403 98.959 19.299 99.006 18.235 99.061 17.211 99.125 16.187 99.188 15.226 99.247 14.328 99.302 13.427 99.363 12.667 99.421 12.049 99.476V99.476C14.767 100.831 17.608 102.155 20.573 103.447 23.529 104.743 26.412 105.989 29.22 107.185V107.185L27.527 111.555C25.544 110.679 23.495 109.759 21.38 108.796 19.268 107.827 17.177 106.851 15.105 105.869 13.038 104.896 11.04 103.928 9.112 102.965 7.191 102.005 5.424 101.091 3.812 100.222ZM33.627 68.657V68.657C34.769 69.525 35.915 70.173 37.064 70.6 38.213 71.027 39.314 71.223 40.367 71.19 41.429 71.155 42.429 70.892 43.367 70.4 44.31 69.913 45.146 69.189 45.877 68.228V68.228C46.595 67.283 47.062 66.291 47.279 65.252 47.502 64.217 47.488 63.183 47.237 62.15 46.987 61.127 46.503 60.118 45.784 59.126 45.064 58.133 44.134 57.202 42.991 56.334V56.334C41.849 55.466 40.703 54.819 39.554 54.392 38.405 53.965 37.304 53.768 36.251 53.802 35.194 53.84 34.194 54.104 33.251 54.591 32.308 55.079 31.478 55.795 30.76 56.739V56.739C30.03 57.7 29.556 58.7 29.339 59.739 29.122 60.779 29.141 61.817 29.397 62.853 29.658 63.885 30.142 64.893 30.851 65.878 31.559 66.862 32.484 67.789 33.627 68.657ZM46.009 52.363V52.363C47.798 53.722 49.169 55.185 50.125 56.754 51.09 58.321 51.682 59.907 51.901 61.514 52.116 63.126 51.991 64.719 51.527 66.294 51.057 67.866 50.295 69.345 49.24 70.733V70.733C48.189 72.116 46.964 73.252 45.564 74.141 44.162 75.021 42.658 75.571 41.052 75.79 39.445 76.009 37.752 75.872 35.972 75.378 34.201 74.882 32.421 73.955 30.633 72.596V72.596C28.845 71.237 27.48 69.775 26.54 68.21 25.597 66.635 25.02 65.029 24.806 63.394 24.593 61.758 24.718 60.152 25.183 58.577 25.653 57.005 26.407 55.537 27.445 54.17V54.17C28.484 52.804 29.697 51.684 31.085 50.81 32.482 49.935 33.99 49.392 35.607 49.181 37.224 48.97 38.915 49.11 40.681 49.602 42.445 50.084 44.221 51.004 46.009 52.363ZM78.432 42.68L75.263 45.206C73.697 44.618 71.987 44.005 70.132 43.366 68.276 42.736 66.38 42.121 64.444 41.52 62.513 40.915 60.598 40.362 58.699 39.861 56.8 39.36 55.043 38.946 53.429 38.62V38.62L65.116 53.29 61.451 56.21 45.12 35.712 48.164 33.287C49.616 33.485 51.247 33.789 53.056 34.198 54.866 34.608 56.716 35.059 58.607 35.549 60.502 36.045 62.368 36.569 64.205 37.12 66.046 37.667 67.727 38.206 69.246 38.736V38.736L58.405 25.128 62.102 22.183ZM101.409 31.811L85.348 39.345 74.218 15.618 89.459 8.469 91.176 12.129 80.25 17.254 82.997 23.108 92.72 18.547 94.407 22.143 84.684 26.705 87.947 33.66 99.692 28.151ZM112.71 14.395V14.395C113.426 12.307 114.108 10.203 114.756 8.082 115.409 5.952 115.962 3.834 116.414 1.728V1.728L121.585 0.615C120.765 3.528 119.888 6.432 118.954 9.328 118.014 12.226 116.975 15.161 115.839 18.135V18.135L118.003 28.193 113.342 29.196 111.196 19.216C108.93 16.94 106.765 14.67 104.7 12.405 102.644 10.145 100.643 7.857 98.697 5.539V5.539L104.173 4.361C105.445 6.097 106.803 7.804 108.248 9.482 109.691 11.153 111.178 12.791 112.71 14.395ZM133.258 0L137.682 0.096C138.217 1.067 138.808 2.253 139.455 3.656 140.109 5.051 140.771 6.521 141.441 8.064 142.112 9.608 142.778 11.175 143.441 12.765 144.097 14.355 144.702 15.824 145.257 17.17V17.17C145.862 15.849 146.524 14.408 147.242 12.848 147.953 11.288 148.681 9.751 149.424 8.238 150.161 6.725 150.883 5.286 151.59 3.92 152.304 2.547 152.95 1.388 153.527 0.441V0.441L157.83 0.535C158.016 2.457 158.187 4.496 158.341 6.652 158.495 8.814 158.631 11.024 158.75 13.279 158.862 15.542 158.963 17.814 159.054 20.096 159.145 22.385 159.217 24.613 159.271 26.78V26.78L154.576 26.678C154.541 23.626 154.492 20.486 154.428 17.259 154.358 14.025 154.218 10.894 154.009 7.865V7.865C153.715 8.435 153.372 9.122 152.979 9.925 152.579 10.721 152.155 11.587 151.705 12.523 151.262 13.458 150.808 14.428 150.344 15.43 149.88 16.426 149.43 17.392 148.993 18.328 148.557 19.264 148.153 20.137 147.78 20.947 147.413 21.764 147.096 22.458 146.829 23.029V23.029L143.27 22.951C143.034 22.369 142.748 21.656 142.411 20.81 142.081 19.971 141.715 19.075 141.313 18.121 140.918 17.166 140.513 16.182 140.1 15.167 139.679 14.145 139.265 13.164 138.856 12.223 138.447 11.282 138.064 10.398 137.707 9.572 137.342 8.746 137.029 8.052 136.766 7.49V7.49C136.419 10.507 136.143 13.629 135.939 16.857 135.728 20.078 135.539 23.212 135.372 26.26V26.26L130.687 26.158C130.834 23.995 131 21.755 131.185 19.439 131.376 17.123 131.58 14.824 131.798 12.542 132.008 10.267 132.237 8.059 132.485 5.918 132.733 3.784 132.99 1.811 133.258 0ZM182.875 33.402L165.787 28.637 172.827 3.393 189.043 7.915 187.957 11.809 176.333 8.567 174.596 14.796 184.942 17.681 183.875 21.508 173.529 18.623 171.465 26.023 183.961 29.508ZM207.288 46.451L203.715 44.537C203.636 42.867 203.524 41.054 203.378 39.097 203.224 37.143 203.04 35.158 202.827 33.142 202.62 31.13 202.371 29.152 202.081 27.209 201.791 25.267 201.477 23.489 201.138 21.878V21.878L192.28 38.41 188.149 36.197 200.527 13.096 203.957 14.934C204.35 16.346 204.715 17.964 205.053 19.789 205.392 21.613 205.709 23.49 206.005 25.422 206.299 27.358 206.555 29.279 206.774 31.184 206.999 33.092 207.168 34.849 207.282 36.454V36.454L215.499 21.118 219.665 23.351ZM228.656 30.272L244.115 44.348 241.339 47.397 235.383 41.974 220.514 58.302 216.967 55.073 231.836 38.744 225.88 33.32ZM241.996 62.718V62.718C240.828 63.551 239.869 64.453 239.12 65.423 238.371 66.394 237.856 67.387 237.576 68.402 237.293 69.427 237.248 70.46 237.439 71.501 237.624 72.546 238.067 73.56 238.768 74.543V74.543C239.457 75.509 240.265 76.25 241.193 76.766 242.115 77.286 243.107 77.579 244.167 77.647 245.219 77.712 246.325 77.549 247.487 77.157 248.648 76.765 249.813 76.153 250.981 75.32V75.32C252.15 74.487 253.108 73.585 253.857 72.615 254.606 71.644 255.121 70.651 255.402 69.636 255.678 68.615 255.724 67.582 255.539 66.537 255.353 65.492 254.916 64.486 254.227 63.52V63.52C253.526 62.537 252.712 61.788 251.784 61.272 250.857 60.756 249.86 60.467 248.794 60.403 247.731 60.345 246.625 60.509 245.474 60.893 244.323 61.277 243.164 61.885 241.996 62.718ZM253.877 79.381V79.381C252.049 80.685 250.244 81.561 248.462 82.007 246.68 82.463 244.989 82.557 243.39 82.289 241.787 82.016 240.302 81.424 238.936 80.512 237.575 79.597 236.389 78.43 235.377 77.01V77.01C234.368 75.597 233.648 74.089 233.214 72.488 232.79 70.888 232.712 69.289 232.98 67.69 233.247 66.091 233.882 64.515 234.882 62.961 235.881 61.418 237.295 59.994 239.123 58.69V58.69C240.952 57.386 242.753 56.517 244.528 56.084 246.311 55.652 248.016 55.577 249.641 55.859 251.267 56.141 252.763 56.737 254.129 57.649 255.49 58.564 256.668 59.72 257.665 61.118V61.118C258.661 62.515 259.371 64.006 259.792 65.591 260.213 67.185 260.283 68.786 260.005 70.393 259.726 72 259.09 73.573 258.096 75.113 257.112 76.655 255.706 78.077 253.877 79.381ZM272.925 90.009V90.009C274.315 93.525 274.736 96.469 274.189 98.841 273.635 101.216 272.033 102.927 269.384 103.974V103.974C266.079 105.281 263.197 104.538 260.739 101.747V101.747C260.371 102.404 259.912 103.166 259.361 104.033 258.812 104.906 258.201 105.814 257.529 106.758 256.856 107.701 256.152 108.628 255.417 109.539 254.683 110.456 253.941 111.305 253.19 112.085V112.085L251.23 107.128C251.897 106.353 252.558 105.536 253.214 104.678 253.863 103.823 254.49 102.974 255.094 102.129 255.688 101.282 256.242 100.457 256.754 99.656 257.269 98.861 257.719 98.129 258.102 97.458V97.458C257.947 97.137 257.823 96.862 257.732 96.631 257.638 96.394 257.55 96.17 257.466 95.958V95.958L256.619 93.816 247.407 97.458 245.655 93.025 269.672 83.53C270.335 84.515 270.949 85.603 271.513 86.793 272.074 87.977 272.545 89.049 272.925 90.009ZM269.216 91.843V91.843C268.846 90.907 268.469 90.054 268.085 89.283V89.283L260.211 92.396 260.976 94.332C261.402 95.411 261.836 96.335 262.277 97.105 262.715 97.884 263.195 98.487 263.717 98.915 264.242 99.349 264.819 99.604 265.447 99.68 266.076 99.756 266.789 99.636 267.587 99.321V99.321C268.335 99.025 268.913 98.635 269.319 98.149 269.72 97.667 269.968 97.1 270.064 96.449 270.162 95.805 270.133 95.092 269.975 94.311 269.812 93.532 269.558 92.709 269.216 91.843Z" fill="#8abe53" data-fill-palette-color="primary"></path><path d="M3.04 143.192C3.04 137.534 7.627 132.948 13.284 132.948 18.942 132.948 23.528 137.534 23.528 143.192 23.528 148.849 18.942 153.436 13.284 153.436 7.627 153.436 3.04 148.849 3.04 143.192ZM256.472 143.192C256.472 137.534 261.058 132.948 266.716 132.948 272.373 132.948 276.96 137.534 276.96 143.192 276.96 148.849 272.373 153.436 266.716 153.436 261.058 153.436 256.472 148.849 256.472 143.192Z" fill="#8abe53" data-fill-palette-color="primary"></path></g></svg></g></svg></g></svg></g></svg></g><defs></defs></svg><rect width="280" height="280" fill="none" stroke="none" visibility="hidden"></rect></g></svg></g></svg>